<svg width="112" height="112" viewBox="0 0 112 112" fill="none" xmlns="http://www.w3.org/2000/svg">
<g clip-path="url(#clip0_1430_90)">
<path d="M60.6667 37.3333C64.3797 37.3333 67.9407 38.8083 70.5662 41.4338C73.1917 44.0593 74.6667 47.6203 74.6667 51.3333C74.6667 52.571 75.1583 53.758 76.0335 54.6332C76.9087 55.5083 78.0957 56 79.3333 56C80.571 56 81.758 55.5083 82.6332 54.6332C83.5083 53.758 84 52.571 84 51.3333C84 45.1449 81.5417 39.21 77.1658 34.8342C72.79 30.4583 66.8551 28 60.6667 28C59.429 28 58.242 28.4917 57.3668 29.3668C56.4917 30.242 56 31.429 56 32.6667C56 33.9043 56.4917 35.0913 57.3668 35.9665C58.242 36.8417 59.429 37.3333 60.6667 37.3333Z" fill="white"/>
<path d="M60.6667 18.6668C69.3304 18.6668 77.6393 22.1085 83.7655 28.2347C89.8917 34.3609 93.3333 42.6698 93.3333 51.3335C93.3333 52.5712 93.825 53.7582 94.7002 54.6333C95.5753 55.5085 96.7623 56.0002 98 56.0002C99.2377 56.0002 100.425 55.5085 101.3 54.6333C102.175 53.7582 102.667 52.5712 102.667 51.3335C102.667 40.1944 98.2417 29.5115 90.3651 21.635C82.4886 13.7585 71.8058 9.3335 60.6667 9.3335C59.429 9.3335 58.242 9.82516 57.3668 10.7003C56.4917 11.5755 56 12.7625 56 14.0002C56 15.2378 56.4917 16.4248 57.3668 17.3C58.242 18.1752 59.429 18.6668 60.6667 18.6668Z" fill="white"/>
<path d="M101.5 74.2468C101.243 73.4977 100.8 72.8261 100.212 72.2955C99.6246 71.7648 98.9114 71.3925 98.14 71.2135L70.14 64.8202C69.3799 64.6478 68.5889 64.6686 67.8389 64.8805C67.089 65.0925 66.404 65.4888 65.8466 66.0335C65.1933 66.6402 65.1466 66.6868 62.1133 72.4735C52.0482 67.8356 43.9833 59.7375 39.3866 49.6535C45.3133 46.6668 45.36 46.6668 45.9666 45.9668C46.5113 45.4094 46.9077 44.7245 47.1196 43.9746C47.3316 43.2246 47.3523 42.4335 47.18 41.6735L40.7866 14.0002C40.6077 13.2287 40.2353 12.5156 39.7047 11.9277C39.174 11.3399 38.5025 10.8968 37.7533 10.6402C36.6635 10.2509 35.5381 9.96956 34.3933 9.80016C33.2138 9.52667 32.0102 9.37036 30.8 9.3335C25.1067 9.3335 19.6465 11.5952 15.6208 15.6209C11.595 19.6467 9.33331 25.1068 9.33331 30.8002C9.35801 49.8528 16.9376 68.118 30.4098 81.5903C43.8821 95.0626 62.1473 102.642 81.2 102.667C84.019 102.667 86.8105 102.112 89.4149 101.033C92.0194 99.954 94.3858 98.3727 96.3792 96.3794C98.3726 94.386 99.9538 92.0196 101.033 89.4151C102.111 86.8106 102.667 84.0192 102.667 81.2002C102.668 80.0124 102.574 78.8263 102.387 77.6535C102.191 76.4944 101.894 75.3545 101.5 74.2468ZM81.2 93.3335C64.6189 93.3211 48.7205 86.7289 36.9959 75.0043C25.2713 63.2797 18.679 47.3812 18.6666 30.8002C18.6789 27.586 19.9612 24.507 22.234 22.2342C24.5068 19.9614 27.5858 18.6791 30.8 18.6668H32.34L37.3333 40.3202L34.8133 41.6268C30.8 43.7268 27.6266 45.4068 29.3066 49.0468C32.0424 56.7915 36.4689 63.8296 42.2647 69.6496C48.0606 75.4697 55.0801 79.9255 62.8133 82.6935C66.7333 84.2802 68.2733 81.3402 70.3733 77.2802L71.7266 74.7135L93.3333 79.6602V81.2002C93.321 84.4143 92.0387 87.4934 89.766 89.7661C87.4932 92.0389 84.4142 93.3212 81.2 93.3335Z" fill="white"/>
</g>
<defs>
<clipPath id="clip0_1430_90">
<rect width="112" height="112" fill="white"/>
</clipPath>
</defs>
</svg>
