<svg width="94" height="94" viewBox="0 0 94 94" fill="none" xmlns="http://www.w3.org/2000/svg">
<g clip-path="url(#clip0_1430_109)">
<path d="M82.25 15.6665C82.2092 15.3067 82.1304 14.9523 82.015 14.609V14.2565C81.8272 13.8207 81.5618 13.4225 81.2316 13.0815C80.8992 12.7692 80.5148 12.5174 80.0958 12.3374H79.7433C79.3823 12.0617 78.9693 11.8618 78.5291 11.7499H78.3333C77.9439 11.6908 77.5477 11.6908 77.1583 11.7499L6.65829 35.2499C5.87469 35.5074 5.1924 36.0058 4.70871 36.6739C4.22501 37.3421 3.9646 38.1459 3.9646 38.9707C3.9646 39.7956 4.22501 40.5993 4.70871 41.2675C5.1924 41.9356 5.87469 42.434 6.65829 42.6915L40.0675 53.8149L51.1908 87.224C51.4483 88.0076 51.9467 88.6899 52.6149 89.1736C53.283 89.6573 54.0868 89.9177 54.9116 89.9177C55.7365 89.9177 56.5403 89.6573 57.2084 89.1736C57.8765 88.6899 58.3749 88.0076 58.6325 87.224L82.1324 16.724C82.2195 16.3785 82.2591 16.0227 82.25 15.6665ZM63.8416 24.6357L42.0258 46.4515L20.21 39.1665L63.8416 24.6357ZM54.8333 73.7899L47.5483 51.974L69.3641 30.1582L54.8333 73.7899Z" fill="white"/>
</g>
<defs>
<clipPath id="clip0_1430_109">
<rect width="94" height="94" fill="white"/>
</clipPath>
</defs>
</svg>
