<svg width="55" height="65" viewBox="0 0 55 65" fill="none" xmlns="http://www.w3.org/2000/svg">
<path d="M15.5971 6.34976C14.2861 6.34976 12.9808 6.34976 11.6698 6.34976V64.406H15.6923V10.3702C15.6587 9.03195 15.6251 7.69366 15.5971 6.34976Z" fill="#720D0D"/>
<path d="M32.0624 38.9503C34.0288 38.9503 35.8888 38.8495 37.6479 38.6367C39.4071 38.4295 41.2055 37.9088 43.0542 37.0744C45.7378 35.9433 48.0572 34.0843 50.0236 31.4917C51.9901 28.8991 52.9705 25.9705 52.9705 22.6948C52.9705 20.6117 52.5055 18.5847 51.5867 16.6193C50.6623 14.6538 49.3345 12.9012 47.609 11.3501C45.8218 9.743 43.7377 8.5055 41.3511 7.64317C38.9701 6.78084 36.4042 6.34967 33.6702 6.34967C28.925 6.34967 24.1798 6.34967 19.4402 6.34967C19.4458 6.49526 19.4906 8.20872 19.4962 8.35431C19.5018 8.4999 19.5466 10.2246 19.5522 10.3702C24.2582 10.3702 28.9642 10.3702 33.6759 10.3702C36.7123 10.3702 39.3959 10.9637 41.7153 12.1564C44.0403 13.3491 45.8274 14.8778 47.0768 16.7536C48.3261 18.6295 48.9536 20.6117 48.9536 22.6948C48.9536 25.0186 48.2084 27.1464 46.7182 29.0839C45.228 31.0213 43.4744 32.4604 41.4464 33.4123C38.7068 34.5434 35.1325 35.109 30.7234 35.109H23.5747L47.7042 64.4059H53.0657L32.0624 38.9503Z" fill="#720D0D"/>
<path d="M0 0V3.20295H25.0539H29.5246H54.4832V0H0Z" fill="#720D0D"/>
</svg>
