<svg width="859" height="156" viewBox="0 0 859 156" fill="none" xmlns="http://www.w3.org/2000/svg">
<g clip-path="url(#clip0_1369_530)">
<path d="M40.2194 49.3494C38.1323 49.3494 36.0542 49.3494 33.967 49.3494V141.575H40.371V55.7364C40.3172 53.6103 40.2638 51.4842 40.2194 49.3494Z" fill="url(#paint0_linear_1369_530)"/>
<path d="M66.4321 101.138C69.5628 101.138 72.5237 100.977 75.3244 100.639C78.1251 100.31 80.9879 99.4829 83.9312 98.1576C88.2036 96.3609 91.8959 93.4076 95.0265 89.2892C98.1571 85.1705 99.7179 80.5185 99.7179 75.3147C99.7179 72.0058 98.9776 68.7856 97.515 65.6635C96.0433 62.5411 93.9295 59.757 91.1823 57.2929C88.3371 54.7401 85.0195 52.7741 81.22 51.4044C77.4292 50.0344 73.3446 49.3494 68.9921 49.3494C61.4375 49.3494 53.8833 49.3494 46.3377 49.3494C46.3467 49.5806 46.4178 52.3026 46.4269 52.5339C46.4359 52.7651 46.507 55.5052 46.516 55.7364C54.0082 55.7364 61.4999 55.7364 69.0007 55.7364C73.8351 55.7364 78.1071 56.6793 81.7997 58.5738C85.5011 60.4684 88.3462 62.8968 90.3351 65.8767C92.324 68.8567 93.3231 72.0058 93.3231 75.3147C93.3231 79.0064 92.1366 82.3864 89.7644 85.4641C87.3918 88.5418 84.6001 90.8281 81.3716 92.3402C77.0101 94.137 71.3199 95.0356 64.3006 95.0356H52.9199L91.3339 141.575H99.8695L66.4321 101.138Z" fill="url(#paint1_linear_1369_530)"/>
<path d="M15.3887 39.2624V44.3504H55.2744H62.3919H102.126V39.2624H15.3887Z" fill="url(#paint2_linear_1369_530)"/>
<path d="M3.41943 26.4676H1.85828V28.0276V149.812V151.372H3.41943H115.228H116.789V149.812V28.0276V26.4676H115.228H3.41943Z" stroke="url(#paint3_linear_1369_530)" stroke-width="5" stroke-miterlimit="10"/>
<path d="M204.952 86.6667L181.534 58.24H188.473C192.752 58.24 196.221 57.6912 198.88 56.5933C200.846 55.6688 202.552 54.2821 203.998 52.4333C205.443 50.5267 206.166 48.4467 206.166 46.1933C206.166 44.1712 205.559 42.2646 204.344 40.4733C203.13 38.6246 201.396 37.1221 199.141 35.9667C196.886 34.8112 194.284 34.2333 191.335 34.2333H175.55V86.6667H171.647V30.3333H191.335C193.995 30.3333 196.481 30.7667 198.794 31.6333C201.107 32.4422 203.13 33.6267 204.865 35.1867C206.542 36.6888 207.814 38.3933 208.681 40.3C209.606 42.2067 210.069 44.1712 210.069 46.1933C210.069 49.3712 209.115 52.2312 207.207 54.7733C205.298 57.2579 203.043 59.0488 200.442 60.1467C198.649 60.9555 196.886 61.4755 195.151 61.7067C193.474 61.88 191.682 61.9667 189.774 61.9667L210.155 86.6667H204.952ZM261.775 86.6667H225.261V30.3333H261.775V34.32H229.164V56.5067H254.576V60.4933H229.164V82.5933H261.775V86.6667ZM319.606 87.62L280.577 40.9067V86.6667H276.675V29.64L315.703 76.2667V30.3333H319.606V87.62ZM342.827 72.3667L336.149 86.6667H331.812L358.353 29.64L383.418 86.6667H379.169L372.837 72.3667H342.827ZM358.18 39.26L344.648 68.4667H371.103L358.18 39.26ZM433.157 30.3333V34.32H410.867V86.6667H406.877V34.32H384.501V30.3333H433.157ZM445.396 72.3667L438.718 86.6667H434.381L460.921 29.64L485.986 86.6667H481.736L475.405 72.3667H445.396ZM460.747 39.26L447.217 68.4667H473.67L460.747 39.26ZM572.487 30.3333V34.32H550.198V86.6667H546.208V34.32H523.832V30.3333H572.487ZM621.719 83.46C617.327 86.0021 612.557 87.2733 607.409 87.2733C602.264 87.2733 597.494 86.0021 593.098 83.46C588.706 80.86 585.237 77.3646 582.69 72.9733C580.148 68.5246 578.874 63.7 578.874 58.5C578.874 53.3 580.148 48.5046 582.69 44.1133C585.237 39.6646 588.706 36.1688 593.098 33.6267C597.494 31.0267 602.264 29.7267 607.409 29.7267C612.557 29.7267 617.327 31.0267 621.719 33.6267C626.115 36.1688 629.584 39.6646 632.127 44.1133C634.673 48.5046 635.943 53.3 635.943 58.5C635.943 63.7 634.673 68.5246 632.127 72.9733C629.584 77.3646 626.115 80.86 621.719 83.46ZM619.724 37.0933C615.967 34.84 611.863 33.7133 607.409 33.7133C602.958 33.7133 598.854 34.84 595.093 37.0933C591.336 39.2888 588.328 42.2933 586.073 46.1067C583.877 49.8621 582.777 53.9933 582.777 58.5C582.777 63.0067 583.877 67.1667 586.073 70.98C588.328 74.7355 591.336 77.74 595.093 79.9933C598.854 82.1888 602.958 83.2867 607.409 83.2867C611.863 83.2867 615.967 82.1888 619.724 79.9933C623.485 77.74 626.462 74.7355 628.658 70.98C630.857 67.1667 631.953 63.0067 631.953 58.5C631.953 53.9933 630.857 49.8621 628.658 46.1067C626.462 42.2933 623.485 39.2888 619.724 37.0933ZM681.799 86.6667L658.382 58.24H665.32C669.601 58.24 673.071 57.6912 675.728 56.5933C677.695 55.6688 679.402 54.2821 680.845 52.4333C682.292 50.5267 683.013 48.4467 683.013 46.1933C683.013 44.1712 682.406 42.2646 681.192 40.4733C679.978 38.6246 678.243 37.1221 675.988 35.9667C673.733 34.8112 671.131 34.2333 668.183 34.2333H652.398V86.6667H648.495V30.3333H668.183C670.843 30.3333 673.331 30.7667 675.641 31.6333C677.955 32.4422 679.978 33.6267 681.712 35.1867C683.392 36.6888 684.661 38.3933 685.529 40.3C686.455 42.2067 686.916 44.1712 686.916 46.1933C686.916 49.3712 685.962 52.2312 684.054 54.7733C682.146 57.2579 679.891 59.0488 677.289 60.1467C675.499 60.9555 673.733 61.4755 671.999 61.7067C670.323 61.88 668.529 61.9667 666.621 61.9667L687.003 86.6667H681.799ZM735.413 86.6667L711.995 58.24H718.934C723.215 58.24 726.684 57.6912 729.341 56.5933C731.308 55.6688 733.015 54.2821 734.459 52.4333C735.905 50.5267 736.627 48.4467 736.627 46.1933C736.627 44.1712 736.02 42.2646 734.805 40.4733C733.591 38.6246 731.857 37.1221 729.602 35.9667C727.347 34.8112 724.745 34.2333 721.796 34.2333H706.011V86.6667H702.108V30.3333H721.796C724.457 30.3333 726.944 30.7667 729.255 31.6333C731.569 32.4422 733.591 33.6267 735.326 35.1867C737.005 36.6888 738.275 38.3933 739.142 40.3C740.068 42.2067 740.53 44.1712 740.53 46.1933C740.53 49.3712 739.576 52.2312 737.668 54.7733C735.759 57.2579 733.504 59.0488 730.903 60.1467C729.112 60.9555 727.347 61.4755 725.612 61.7067C723.936 61.88 722.143 61.9667 720.235 61.9667L740.616 86.6667H735.413ZM792.238 86.6667H755.725V30.3333H792.238V34.32H759.628V56.5067H785.04V60.4933H759.628V82.5933H792.238V86.6667ZM835.798 59.3667C838.459 60.8688 840.509 62.7179 841.956 64.9133C843.458 67.0512 844.211 69.3621 844.211 71.8467C844.211 73.9846 843.69 76.0355 842.65 78C841.609 79.9067 840.107 81.5821 838.14 83.0267C834.091 85.9155 829.38 87.36 824.003 87.36C821.342 87.36 818.799 86.9846 816.37 86.2333C813.942 85.4821 811.774 84.4133 809.865 83.0267C806.57 80.6 804.575 77.6246 803.881 74.1L807.61 72.02C807.784 75.1979 809.345 77.7979 812.294 79.82C813.796 80.9755 815.562 81.8712 817.585 82.5067C819.607 83.0846 821.748 83.3733 824.003 83.3733C828.627 83.3733 832.53 82.1888 835.711 79.82C838.775 77.5667 840.308 74.9088 840.308 71.8467C840.308 70.0555 839.729 68.38 838.573 66.82C837.474 65.26 835.912 63.9312 833.89 62.8333C831.982 61.8512 828.572 61.0712 823.656 60.4933C823.25 60.4355 821.775 60.2046 819.232 59.8C816.745 59.3955 814.608 58.76 812.814 57.8933C809.98 56.5067 807.756 54.6867 806.136 52.4333C804.516 50.1221 803.708 47.6379 803.708 44.98C803.708 42.8421 804.228 40.8488 805.269 39C806.369 37.0933 807.898 35.4179 809.865 33.9733C811.774 32.5867 813.942 31.5178 816.37 30.7667C818.799 30.0156 821.342 29.64 824.003 29.64C829.38 29.64 834.091 31.0845 838.14 33.9733C841.494 36.5155 843.458 39.4621 844.037 42.8133L840.308 44.8933C840.249 43.4488 839.815 42.0621 839.007 40.7333C838.254 39.4046 837.158 38.1912 835.711 37.0933C834.15 35.9379 832.356 35.0712 830.334 34.4933C828.311 33.8578 826.199 33.54 824.003 33.54C821.807 33.54 819.666 33.8578 817.585 34.4933C815.562 35.0712 813.796 35.9379 812.294 37.0933C810.792 38.1912 809.633 39.4333 808.825 40.82C808.016 42.1488 807.61 43.5355 807.61 44.98C807.61 46.7712 808.277 48.5621 809.605 50.3533C810.934 52.0867 812.582 53.4446 814.549 54.4267C815.763 55.0046 817.092 55.4379 818.539 55.7267C820.041 55.9579 821.949 56.2179 824.263 56.5067C824.669 56.5646 825.678 56.7088 827.298 56.94C828.918 57.1712 830.48 57.4888 831.982 57.8933C833.484 58.2979 834.757 58.7888 835.798 59.3667Z" fill="url(#paint4_linear_1369_530)"/>
<path d="M351.304 142.081L348.365 148.373H346.458L358.135 123.282L369.163 148.373H367.293L364.508 142.081H351.304ZM358.058 127.514L352.105 140.365H363.744L358.058 127.514ZM403.37 147.42C401.868 148.055 400.241 148.373 398.485 148.373H391.349V123.587H398.485C400.241 123.587 401.868 123.917 403.37 124.578C404.869 125.214 406.166 126.129 407.262 127.324C408.303 128.468 409.105 129.777 409.667 131.251C410.225 132.726 410.506 134.289 410.506 135.942C410.506 137.594 410.225 139.158 409.667 140.632C409.105 142.107 408.303 143.429 407.262 144.598C406.166 145.818 404.869 146.759 403.37 147.42ZM393.066 125.341V146.657H398.485C401.562 146.657 404.067 145.577 406.003 143.416C406.891 142.45 407.568 141.332 408.026 140.06C408.508 138.764 408.751 137.391 408.751 135.942C408.751 134.518 408.508 133.171 408.026 131.9C407.568 130.603 406.891 129.472 406.003 128.506C404.043 126.396 401.538 125.341 398.485 125.341H393.066ZM441.122 144.522L450.51 123.587H452.418L441.122 148.793L429.864 123.587H431.734L441.122 144.522ZM490.739 146.962C488.806 148.081 486.708 148.64 484.442 148.64C482.177 148.64 480.078 148.081 478.145 146.962C476.213 145.818 474.687 144.28 473.566 142.348C472.446 140.391 471.887 138.268 471.887 135.98C471.887 133.692 472.446 131.582 473.566 129.65C474.687 127.692 476.213 126.154 478.145 125.036C480.078 123.892 482.177 123.32 484.442 123.32C486.708 123.32 488.806 123.892 490.739 125.036C492.671 126.154 494.198 127.692 495.318 129.65C496.439 131.582 496.997 133.692 496.997 135.98C496.997 138.268 496.439 140.391 495.318 142.348C494.198 144.28 492.671 145.818 490.739 146.962ZM489.861 126.561C488.206 125.57 486.402 125.074 484.442 125.074C482.482 125.074 480.678 125.57 479.023 126.561C477.368 127.527 476.047 128.849 475.054 130.527C474.086 132.18 473.604 133.997 473.604 135.98C473.604 137.963 474.086 139.793 475.054 141.471C476.047 143.124 477.368 144.446 479.023 145.437C480.678 146.403 482.482 146.886 484.442 146.886C486.402 146.886 488.206 146.403 489.861 145.437C491.516 144.446 492.824 143.124 493.792 141.471C494.76 139.793 495.242 137.963 495.242 135.98C495.242 133.997 494.76 132.18 493.792 130.527C492.824 128.849 491.516 127.527 489.861 126.561ZM539.603 136.056V148.373H530.635C528.373 148.373 526.284 147.814 524.376 146.695C522.468 145.577 520.956 144.064 519.835 142.158C518.718 140.226 518.156 138.115 518.156 135.827C518.156 133.565 518.718 131.48 519.835 129.574C520.956 127.642 522.468 126.116 524.376 124.998C526.284 123.854 528.373 123.282 530.635 123.282C532.366 123.282 534.021 123.638 535.596 124.349C537.199 125.061 538.586 126.053 539.755 127.324L538.496 128.506C537.48 127.413 536.283 126.574 534.909 125.989C533.535 125.379 532.113 125.074 530.635 125.074C528.702 125.074 526.909 125.557 525.254 126.523C523.603 127.489 522.291 128.798 521.323 130.451C520.359 132.078 519.873 133.87 519.873 135.827C519.873 137.785 520.359 139.59 521.323 141.242C522.291 142.895 523.603 144.217 525.254 145.208C526.909 146.174 528.702 146.657 530.635 146.657H537.809V137.772H529.643V136.056H539.603ZM566.999 142.081L564.061 148.373H562.153L573.83 123.282L584.859 148.373H582.989L580.203 142.081H566.999ZM573.754 127.514L567.801 140.365H579.44L573.754 127.514ZM619.062 147.42C617.563 148.055 615.933 148.373 614.177 148.373H607.041V123.587H614.177C615.933 123.587 617.563 123.917 619.062 124.578C620.564 125.214 621.861 126.129 622.954 127.324C623.999 128.468 624.8 129.777 625.358 131.251C625.92 132.726 626.198 134.289 626.198 135.942C626.198 137.594 625.92 139.158 625.358 140.632C624.8 142.107 623.999 143.429 622.954 144.598C621.861 145.818 620.564 146.759 619.062 147.42ZM608.758 125.341V146.657H614.177C617.258 146.657 619.763 145.577 621.695 143.416C622.587 142.45 623.26 141.332 623.717 140.06C624.203 138.764 624.443 137.391 624.443 135.942C624.443 134.518 624.203 133.171 623.717 131.9C623.26 130.603 622.587 129.472 621.695 128.506C619.738 126.396 617.23 125.341 614.177 125.341H608.758ZM650.07 142.081L647.131 148.373H645.223L656.901 123.282L667.929 148.373H666.059L663.274 142.081H650.07ZM656.824 127.514L650.871 140.365H662.51L656.824 127.514Z" fill="white"/>
<path d="M171.38 140.4H327.494" stroke="url(#paint5_linear_1369_530)" stroke-width="6"/>
<path d="M694.885 140.4H851" stroke="url(#paint6_linear_1369_530)" stroke-width="6"/>
</g>
<defs>
<linearGradient id="paint0_linear_1369_530" x1="61.807" y1="70.8854" x2="12.5779" y2="120.246" gradientUnits="userSpaceOnUse">
<stop offset="0.1327" stop-color="#FFFFF8"/>
<stop offset="0.3475" stop-color="#EDD89B"/>
<stop offset="0.373" stop-color="#F3E0A3"/>
<stop offset="0.4282" stop-color="#FCEBAE"/>
<stop offset="0.4872" stop-color="#FFEFB2"/>
<stop offset="0.6461" stop-color="#FFFFD4"/>
<stop offset="0.8327" stop-color="#FFFFF2"/>
</linearGradient>
<linearGradient id="paint1_linear_1369_530" x1="101.31" y1="67.3307" x2="59.2119" y2="109.541" gradientUnits="userSpaceOnUse">
<stop offset="0.1327" stop-color="#FFFFF8"/>
<stop offset="0.3475" stop-color="#EDD89B"/>
<stop offset="0.373" stop-color="#F3E0A3"/>
<stop offset="0.4282" stop-color="#FCEBAE"/>
<stop offset="0.4872" stop-color="#FFEFB2"/>
<stop offset="0.6461" stop-color="#FFFFD4"/>
<stop offset="0.8327" stop-color="#FFFFF2"/>
</linearGradient>
<linearGradient id="paint2_linear_1369_530" x1="81.7144" y1="18.9069" x2="35.9195" y2="64.824" gradientUnits="userSpaceOnUse">
<stop offset="0.1327" stop-color="#FFFFF8"/>
<stop offset="0.3475" stop-color="#EDD89B"/>
<stop offset="0.373" stop-color="#F3E0A3"/>
<stop offset="0.4282" stop-color="#FCEBAE"/>
<stop offset="0.4872" stop-color="#FFEFB2"/>
<stop offset="0.6461" stop-color="#FFFFD4"/>
<stop offset="0.8327" stop-color="#FFFFF2"/>
</linearGradient>
<linearGradient id="paint3_linear_1369_530" x1="2.08157" y1="88.92" x2="116.569" y2="88.92" gradientUnits="userSpaceOnUse">
<stop stop-color="#FFEFB2"/>
<stop offset="0.1327" stop-color="#FFFFF8"/>
<stop offset="0.2528" stop-color="#FFFFD4"/>
<stop offset="0.4153" stop-color="#AB9659"/>
<stop offset="0.6116" stop-color="#EEDA9D"/>
<stop offset="0.8327" stop-color="#FFFFF2"/>
<stop offset="1" stop-color="#EDD89B"/>
</linearGradient>
<linearGradient id="paint4_linear_1369_530" x1="155.524" y1="52" x2="859.243" y2="52" gradientUnits="userSpaceOnUse">
<stop stop-color="#FFEFB2"/>
<stop offset="0.1327" stop-color="#FFFFF8"/>
<stop offset="0.2528" stop-color="#FFFFD4"/>
<stop offset="0.4153" stop-color="#AB9659"/>
<stop offset="0.6116" stop-color="#EEDA9D"/>
<stop offset="0.8327" stop-color="#FFFFF2"/>
<stop offset="1" stop-color="#EDD89B"/>
</linearGradient>
<linearGradient id="paint5_linear_1369_530" x1="169.512" y1="140.9" x2="329.367" y2="140.9" gradientUnits="userSpaceOnUse">
<stop stop-color="#FFEFB2"/>
<stop offset="0.1327" stop-color="#FFFFF8"/>
<stop offset="0.2528" stop-color="#FFFFD4"/>
<stop offset="0.4153" stop-color="#AB9659"/>
<stop offset="0.6116" stop-color="#EEDA9D"/>
<stop offset="0.8327" stop-color="#FFFFF2"/>
<stop offset="1" stop-color="#EDD89B"/>
</linearGradient>
<linearGradient id="paint6_linear_1369_530" x1="693.017" y1="140.9" x2="852.872" y2="140.9" gradientUnits="userSpaceOnUse">
<stop stop-color="#FFEFB2"/>
<stop offset="0.1327" stop-color="#FFFFF8"/>
<stop offset="0.2528" stop-color="#FFFFD4"/>
<stop offset="0.4153" stop-color="#AB9659"/>
<stop offset="0.6116" stop-color="#EEDA9D"/>
<stop offset="0.8327" stop-color="#FFFFF2"/>
<stop offset="1" stop-color="#EDD89B"/>
</linearGradient>
<clipPath id="clip0_1369_530">
<rect width="859" height="156" fill="white"/>
</clipPath>
</defs>
</svg>
