<svg width="76" height="76" viewBox="0 0 76 76" fill="none" xmlns="http://www.w3.org/2000/svg">
<path d="M55.375 66.125C54.8752 66.127 54.3823 66.0092 53.9375 65.7813L38 57.4375L22.0625 65.7813C21.545 66.0534 20.9615 66.1749 20.3784 66.1319C19.7952 66.0889 19.2359 65.8832 18.7638 65.5381C18.2918 65.1931 17.9261 64.7225 17.7082 64.1799C17.4903 63.6373 17.429 63.0445 17.5312 62.4688L20.6562 44.875L7.78124 32.375C7.37955 31.9742 7.09459 31.4715 6.95695 30.9209C6.81932 30.3704 6.83419 29.7928 6.99999 29.25C7.18112 28.6946 7.51429 28.2011 7.96171 27.8255C8.40913 27.4499 8.95287 27.2072 9.53124 27.125L27.3437 24.5313L35.1875 8.50003C35.4434 7.97168 35.8429 7.5261 36.3403 7.21432C36.8378 6.90254 37.4129 6.73718 38 6.73718C38.587 6.73718 39.1622 6.90254 39.6596 7.21432C40.1571 7.5261 40.5566 7.97168 40.8125 8.50003L48.75 24.5L66.5625 27.0938C67.1409 27.176 67.6846 27.4187 68.132 27.7943C68.5794 28.1699 68.9126 28.6634 69.0937 29.2188C69.2595 29.7615 69.2744 30.3391 69.1368 30.8897C68.9991 31.4402 68.7142 31.9429 68.3125 32.3438L55.4375 44.8438L58.5625 62.4375C58.6741 63.0234 58.6156 63.6289 58.3941 64.1827C58.1726 64.7364 57.7973 65.2152 57.3125 65.5625C56.7466 65.9591 56.0653 66.1569 55.375 66.125ZM38 50.8125C38.5009 50.7999 38.9965 50.9184 39.4375 51.1563L51.2187 57.4063L48.9687 44.25C48.8814 43.7477 48.9184 43.2316 49.0764 42.7468C49.2343 42.262 49.5085 41.8233 49.875 41.4688L59.25 32.3125L46.125 30.375C45.6437 30.2781 45.192 30.0692 44.8065 29.7651C44.421 29.4611 44.1126 29.0705 43.9062 28.625L38 16.9063L32.0937 28.625C31.8676 29.0741 31.5365 29.462 31.1285 29.7558C30.7205 30.0495 30.2476 30.2405 29.75 30.3125L16.625 32.25L26 41.4063C26.3665 41.7608 26.6407 42.1995 26.7986 42.6843C26.9566 43.1691 26.9935 43.6852 26.9062 44.1875L24.6562 57.1875L36.4375 50.9375C36.9367 50.7519 37.4776 50.7087 38 50.8125Z" fill="white"/>
</svg>
