<svg width="738" height="804" viewBox="0 0 738 804" fill="none" xmlns="http://www.w3.org/2000/svg">
<rect width="738" height="804" rx="89" fill="#720D0D"/>
<path d="M263.699 180.398L263.648 177.95H261.199H261.13H261.062H260.993H260.924H260.856H260.787H260.718H260.649H260.581H260.512H260.443H260.375H260.306H260.237H260.169H260.1H260.031H259.963H259.894H259.825H259.757H259.688H259.619H259.551H259.482H259.413H259.344H259.276H259.207H259.138H259.07H259.001H258.932H258.864H258.795H258.726H258.658H258.589H258.52H258.452H258.383H258.314H258.246H258.177H258.109H258.04H257.971H257.903H257.834H257.765H257.697H257.628H257.559H257.491H257.422H257.353H257.285H257.216H257.147H257.079H257.01H256.942H256.873H256.804H256.736H256.667H256.598H256.53H256.461H256.392H256.324H256.255H256.187H256.118H256.049H255.981H255.912H255.843H255.775H255.706H255.637H255.569H255.5H255.432H255.363H255.294H255.226H255.157H255.089H255.02H254.951H254.883H254.814H254.745H254.677H254.608H254.54H254.471H254.402H254.334H254.265H254.197H254.128H254.059H253.991H253.922H253.853H253.785H253.716H253.648H253.579H253.51H253.442H253.373H253.305H253.236H253.167H253.099H253.03H252.962H252.893H252.824H252.756H252.687H252.619H252.55H252.482H252.413H252.344H252.276H252.207H252.139H252.07H252.001H251.933H251.864H251.796H251.727H251.658H251.59H251.521H251.453H251.384H251.315H251.247H251.178H251.11H251.041H250.973H250.904H250.835H250.767H250.698H250.63H250.561H250.493H250.424H250.355H250.287H250.218H250.15H250.081H250.012H249.944H249.875H249.807H249.738H249.67H249.601H249.532H249.464H249.395H249.327H249.258H249.19H249.121H249.052H248.984H248.915H248.847H248.778H248.71H248.641H248.572H248.504H248.435H248.367H248.298H248.23H248.161H248.093H248.024H247.955H247.887H247.818H247.75H247.681H247.613H247.544H247.475H247.407H247.338H247.27H247.201H247.133H247.064H246.995H246.927H246.858H246.79H246.721H246.653H246.584H246.516H246.447H246.378H246.31H246.241H246.173H246.104H246.036H245.967H245.899H245.83H245.761H245.693H245.624H245.556H245.487H245.419H245.35H245.282H245.213H245.144H245.076H245.007H244.939H244.87H244.802H244.733H244.665H244.596H244.527H244.459H244.39H244.322H244.253H244.185H244.116H244.047H243.979H243.91H243.842H243.773H243.705H243.636H243.568H243.499H243.43H243.362H243.293H243.225H243.156H243.088H243.019H242.951H242.882H242.813H242.745H242.676H242.608H242.539H242.471H242.402H242.334H242.265H242.196H242.128H242.059H241.991H241.922H241.854H241.785H241.717H241.648H241.579H241.511H241.442H241.374H241.305H241.237H241.168H241.1H241.031H240.962H240.894H240.825H240.757H240.688H240.62H240.551H240.482H240.414H240.345H240.277H240.208H240.14H240.071H240.003H239.934H239.865H239.797H239.728H239.66H239.591H239.523H239.454H239.385H239.317H239.248H239.18H239.111H239.043H238.974H238.906H238.837H238.768H238.7H238.631H238.563H238.494H238.426H238.357H238.288H238.22H238.151H238.083H238.014H237.946H237.877H237.808H237.74H237.671H237.603H237.534H237.466H237.397H237.328H237.26H237.191H237.123H237.054H236.986H236.917H236.848H236.78H236.711H236.643H236.574H236.505H236.437H236.368H236.3H236.231H236.163H236.094H236.025H235.957H235.888H235.82H235.751H235.682H235.614H235.545H235.477H235.408H235.34H235.271H235.202H235.134H235.065H234.997H234.928H234.859H234.791H234.722H234.654H234.585H234.516H234.448H234.379H234.311H234.242H234.173H234.105H234.036H233.968H233.899H233.83H233.762H233.693H233.625H233.556H233.487H233.419H233.35H233.282H233.213H233.144H233.076H233.007H232.939H232.87H232.801H232.733H232.664H232.595H232.527H232.458H232.39H232.321H232.252H232.184H232.115H232.047H231.978H231.909H231.841H231.772H231.703H231.635H231.566H231.498H231.429H231.36H231.292H231.223H231.154H231.086H231.017H230.949H230.88H230.811H230.743H230.674H230.605H230.537H230.468H230.399H230.331H230.262H230.194H230.125H230.056H229.988H229.919H229.85H229.782H229.713H229.644H229.576H229.507H229.438H229.37H229.301H229.232H229.164H229.095H229.026H228.958H228.889H228.82H228.752H228.683H228.615H228.546H228.477H228.409H228.34H228.271H228.203H228.134H228.065H227.996H227.928H227.859H227.79H227.722H227.653H227.584H227.516H227.447H227.378H227.31H227.241H227.172H227.104H227.035H226.966H226.898H226.829H226.76H226.692H226.623H226.554H226.485H226.417H226.348H226.279H226.211H226.142H226.073H223.573V180.45V699.709V702.209H226.073H262.051H264.551V699.709V216.41V216.378L264.55 216.347L264.55 216.342C264.249 204.373 263.949 192.41 263.699 180.398Z" fill="white" stroke="white" stroke-width="5"/>
<path d="M585.359 271.243L585.357 271.238C576.936 253.333 564.85 237.392 549.189 223.315C532.954 208.716 514.032 197.486 492.398 189.669C470.807 181.849 447.567 177.95 422.848 177.95H422.6H422.351H422.102H421.854H421.605H421.356H421.108H420.859H420.61H420.362H420.113H419.864H419.616H419.367H419.118H418.87H418.621H418.372H418.124H417.875H417.626H417.378H417.129H416.88H416.631H416.383H416.134H415.885H415.637H415.388H415.139H414.891H414.642H414.393H414.145H413.896H413.647H413.399H413.15H412.901H412.653H412.404H412.155H411.907H411.658H411.409H411.161H410.912H410.663H410.414H410.166H409.917H409.668H409.42H409.171H408.922H408.674H408.425H408.176H407.928H407.679H407.43H407.182H406.933H406.684H406.436H406.187H405.938H405.69H405.441H405.192H404.944H404.695H404.446H404.198H403.949H403.7H403.452H403.203H402.954H402.705H402.457H402.208H401.959H401.711H401.462H401.213H400.965H400.716H400.467H400.219H399.97H399.721H399.473H399.224H398.975H398.727H398.478H398.229H397.981H397.732H397.483H397.235H396.986H396.737H396.489H396.24H395.991H395.743H395.494H395.245H394.997H394.748H394.499H394.251H394.002H393.753H393.505H393.256H393.007H392.759H392.51H392.261H392.013H391.764H391.515H391.267H391.018H390.769H390.521H390.272H390.023H389.775H389.526H389.277H389.029H388.78H388.531H388.283H388.034H387.785H387.537H387.288H387.039H386.791H386.542H386.294H386.045H385.796H385.548H385.299H385.05H384.802H384.553H384.304H384.056H383.807H383.558H383.31H383.061H382.812H382.564H382.315H382.066H381.818H381.569H381.32H381.072H380.823H380.574H380.326H380.077H379.829H379.58H379.331H379.083H378.834H378.585H378.337H378.088H377.839H377.591H377.342H377.093H376.845H376.596H376.348H376.099H375.85H375.602H375.353H375.104H374.856H374.607H374.358H374.11H373.861H373.612H373.364H373.115H372.867H372.618H372.369H372.121H371.872H371.623H371.375H371.126H370.877H370.629H370.38H370.132H369.883H369.634H369.386H369.137H368.888H368.64H368.391H368.143H367.894H367.645H367.397H367.148H366.899H366.651H366.402H366.154H365.905H365.656H365.408H365.159H364.91H364.662H364.413H364.165H363.916H363.667H363.419H363.17H362.922H362.673H362.424H362.176H361.927H361.678H361.43H361.181H360.933H360.684H360.435H360.187H359.938H359.69H359.441H359.192H358.944H358.695H358.446H358.198H357.949H357.701H357.452H357.203H356.955H356.706H356.458H356.209H355.96H355.712H355.463H355.215H354.966H354.717H354.469H354.22H353.972H353.723H353.474H353.226H352.977H352.729H352.48H352.232H351.983H351.734H351.486H351.237H350.989H350.74H350.491H350.243H349.994H349.746H349.497H349.248H349H348.751H348.503H348.254H348.006H347.757H347.508H347.26H347.011H346.763H346.514H346.266H346.017H345.768H345.52H345.271H345.023H344.774H344.526H344.277H344.028H343.78H343.531H343.283H343.034H342.786H342.537H342.288H342.04H341.791H341.543H341.294H341.046H340.797H340.548H340.3H340.051H339.803H339.554H339.306H339.057H338.809H338.56H338.311H338.063H337.814H337.566H337.317H337.069H336.82H336.572H336.323H336.075H335.826H335.577H335.329H335.08H334.832H334.583H334.335H334.086H333.838H333.589H333.341H333.092H332.844H332.595H332.346H332.098H331.849H331.601H331.352H331.104H330.855H330.607H330.358H330.11H329.861H329.613H329.364H329.116H328.867H328.619H328.37H328.122H327.873H327.624H327.376H327.127H326.879H326.63H326.382H326.133H325.885H325.636H325.388H325.139H324.891H324.642H324.394H324.145H323.897H323.648H323.4H323.151H322.903H322.654H322.406H322.157H321.909H321.66H321.412H321.163H320.915H320.666H320.418H320.169H319.921H319.672H319.424H319.175H318.927H318.678H318.43H318.181H317.933H317.685H317.436H317.188H316.939H316.691H316.442H316.194H315.945H315.697H315.448H315.2H314.951H314.703H314.454H314.206H313.957H313.709H313.46H313.212H312.964H312.715H312.467H312.218H311.97H311.721H311.473H311.224H310.976H310.727H310.479H310.231H309.982H309.734H309.485H309.237H308.988H308.74H308.491H308.243H307.995H307.746H307.498H307.249H307.001H306.752H306.504H306.255H306.007H305.759H305.51H305.262H305.013H304.765H304.516H304.268H304.02H303.771H303.523H303.274H303.026H302.777H302.529H302.281H302.032H301.784H301.535H301.287H301.039H300.79H300.542H300.293H300.045H299.796H299.548H299.3H299.051H298.803H298.554H298.306H298.058H297.809H297.561H297.312H297.064H296.816H296.567H296.319H296.071H295.822H295.574H292.976L293.076 180.546C293.1 181.179 293.212 185.311 293.325 189.483L293.327 189.568C293.439 193.681 293.551 197.811 293.577 198.476C293.601 199.108 293.713 203.265 293.826 207.462L293.829 207.549C293.94 211.687 294.052 215.84 294.078 216.506L294.17 218.91H296.576H296.823H297.069H297.316H297.562H297.809H298.056H298.302H298.549H298.796H299.042H299.289H299.535H299.782H300.029H300.275H300.522H300.769H301.015H301.262H301.508H301.755H302.002H302.248H302.495H302.742H302.988H303.235H303.481H303.728H303.975H304.221H304.468H304.715H304.961H305.208H305.454H305.701H305.948H306.194H306.441H306.688H306.934H307.181H307.427H307.674H307.921H308.167H308.414H308.661H308.907H309.154H309.401H309.647H309.894H310.14H310.387H310.634H310.88H311.127H311.374H311.62H311.867H312.113H312.36H312.607H312.853H313.1H313.347H313.593H313.84H314.086H314.333H314.58H314.826H315.073H315.32H315.566H315.813H316.06H316.306H316.553H316.799H317.046H317.293H317.539H317.786H318.033H318.279H318.526H318.773H319.019H319.266H319.512H319.759H320.006H320.252H320.499H320.746H320.992H321.239H321.486H321.732H321.979H322.225H322.472H322.719H322.965H323.212H323.459H323.705H323.952H324.199H324.445H324.692H324.938H325.185H325.432H325.678H325.925H326.172H326.418H326.665H326.912H327.158H327.405H327.652H327.898H328.145H328.391H328.638H328.885H329.131H329.378H329.625H329.871H330.118H330.365H330.611H330.858H331.105H331.351H331.598H331.845H332.091H332.338H332.584H332.831H333.078H333.324H333.571H333.818H334.064H334.311H334.558H334.804H335.051H335.298H335.544H335.791H336.038H336.284H336.531H336.778H337.024H337.271H337.518H337.764H338.011H338.258H338.504H338.751H338.998H339.244H339.491H339.737H339.984H340.231H340.477H340.724H340.971H341.217H341.464H341.711H341.957H342.204H342.451H342.697H342.944H343.191H343.437H343.684H343.931H344.177H344.424H344.671H344.917H345.164H345.411H345.657H345.904H346.151H346.397H346.644H346.891H347.137H347.384H347.631H347.878H348.124H348.371H348.618H348.864H349.111H349.358H349.604H349.851H350.098H350.344H350.591H350.838H351.084H351.331H351.578H351.824H352.071H352.318H352.564H352.811H353.058H353.304H353.551H353.798H354.045H354.291H354.538H354.785H355.031H355.278H355.525H355.771H356.018H356.265H356.511H356.758H357.005H357.251H357.498H357.745H357.992H358.238H358.485H358.732H358.978H359.225H359.472H359.718H359.965H360.212H360.459H360.705H360.952H361.199H361.445H361.692H361.939H362.185H362.432H362.679H362.926H363.172H363.419H363.666H363.912H364.159H364.406H364.653H364.899H365.146H365.393H365.639H365.886H366.133H366.38H366.626H366.873H367.12H367.366H367.613H367.86H368.107H368.353H368.6H368.847H369.093H369.34H369.587H369.834H370.08H370.327H370.574H370.821H371.067H371.314H371.561H371.807H372.054H372.301H372.548H372.794H373.041H373.288H373.535H373.781H374.028H374.275H374.522H374.768H375.015H375.262H375.509H375.755H376.002H376.249H376.495H376.742H376.989H377.236H377.482H377.729H377.976H378.223H378.469H378.716H378.963H379.21H379.456H379.703H379.95H380.197H380.443H380.69H380.937H381.184H381.431H381.677H381.924H382.171H382.418H382.664H382.911H383.158H383.405H383.651H383.898H384.145H384.392H384.638H384.885H385.132H385.379H385.626H385.872H386.119H386.366H386.613H386.859H387.106H387.353H387.6H387.846H388.093H388.34H388.587H388.834H389.08H389.327H389.574H389.821H390.068H390.314H390.561H390.808H391.055H391.301H391.548H391.795H392.042H392.289H392.535H392.782H393.029H393.276H393.523H393.769H394.016H394.263H394.51H394.757H395.003H395.25H395.497H395.744H395.991H396.237H396.484H396.731H396.978H397.225H397.472H397.718H397.965H398.212H398.459H398.706H398.952H399.199H399.446H399.693H399.94H400.187H400.433H400.68H400.927H401.174H401.421H401.668H401.914H402.161H402.408H402.655H402.902H403.149H403.395H403.642H403.889H404.136H404.383H404.63H404.876H405.123H405.37H405.617H405.864H406.111H406.357H406.604H406.851H407.098H407.345H407.592H407.839H408.085H408.332H408.579H408.826H409.073H409.32H409.567H409.813H410.06H410.307H410.554H410.801H411.048H411.295H411.541H411.788H412.035H412.282H412.529H412.776H413.023H413.27H413.516H413.763H414.01H414.257H414.504H414.751H414.998H415.245H415.492H415.738H415.985H416.232H416.479H416.726H416.973H417.22H417.467H417.714H417.96H418.207H418.454H418.701H418.948H419.195H419.442H419.689H419.936H420.183H420.429H420.676H420.923H421.17H421.417H421.664H421.911H422.158H422.405H422.652H422.899C449.728 218.91 473.325 224.152 493.661 234.609L493.663 234.611C514.142 245.116 529.776 258.523 540.677 274.89C551.602 291.294 557.044 308.547 557.044 326.642C557.044 346.845 550.581 365.346 537.569 382.262C524.474 399.287 509.114 411.882 491.39 420.213C467.307 430.144 435.715 435.176 396.492 435.176H332.554H327.256L330.624 439.265L546.44 701.299L547.19 702.209H548.37H596.323H601.627L598.251 698.118L413.749 474.505C429.48 474.341 444.459 473.435 458.718 471.711C474.732 469.825 491.056 465.091 507.78 457.546C532.22 447.238 553.293 430.319 571.106 406.833C589.026 383.207 597.971 356.482 597.971 326.642C597.971 307.626 593.724 289.136 585.359 271.243Z" fill="white" stroke="white" stroke-width="5"/>
<path d="M121.698 121.156H119.198V123.656V152.304V154.804H121.698H345.782H385.768H609H611.5V152.304V123.656V121.156H609H121.698Z" fill="white" stroke="white" stroke-width="5"/>
</svg>
